<?xml version="1.0" standalone="no"?>
<!DOCTYPE svg PUBLIC "-//W3C//DTD SVG 20010904//EN"
 "http://www.w3.org/TR/2001/REC-SVG-20010904/DTD/svg10.dtd">
<svg version="1.0" xmlns="http://www.w3.org/2000/svg"
 width="390.000000pt" height="390.000000pt" viewBox="0 0 390.000000 390.000000"
 preserveAspectRatio="xMidYMid meet">
<metadata>
Created by potrace 1.14, written by Peter Selinger 2001-2017
</metadata>
<g transform="translate(0.000000,390.000000) scale(0.100000,-0.100000)"
fill="#000000" stroke="none">
<path d="M0 3340 c0 -491 2 -560 15 -560 10 0 15 -10 15 -30 0 -20 -5 -30 -15
-30 -13 0 -15 -38 -15 -286 l0 -287 68 6 c37 4 131 7 210 7 l142 0 0 25 c0 21
5 25 30 25 17 0 30 -4 30 -10 0 -6 35 -10 85 -10 56 0 85 4 85 11 0 8 -13 10
-37 6 -21 -3 -58 -2 -83 2 -29 5 29 8 160 10 112 1 208 5 211 9 4 4 9 18 11
32 2 21 9 25 37 27 52 2 81 12 81 27 0 9 -7 12 -18 9 -10 -2 -24 3 -31 11 -9
11 -30 16 -61 16 -51 0 -87 23 -61 40 25 15 -6 19 -162 22 l-157 3 2 28 c1 15
8 27 16 27 7 0 10 -4 7 -10 -7 -11 0 -12 70 -10 28 1 54 6 59 11 6 5 56 9 113
9 97 0 103 1 103 20 0 27 31 37 105 35 33 -1 71 2 85 8 14 6 30 9 36 8 15 -2
13 71 -2 76 -12 4 -6 50 7 59 5 3 9 13 9 23 0 14 -10 20 -41 25 -82 13 -86 55
-6 57 29 1 63 4 77 9 22 6 23 8 8 15 -22 9 -24 45 -3 45 8 0 15 7 15 15 0 8
-4 15 -9 15 -5 0 -11 -7 -15 -15 -3 -8 -17 -15 -30 -15 -20 0 -27 7 -34 33 -8
30 -11 32 -61 35 -36 2 -54 8 -58 19 -10 26 18 33 125 28 93 -3 103 -2 112 16
6 11 8 25 4 32 -4 6 2 4 13 -6 11 -9 31 -17 44 -16 13 0 57 -2 97 -6 59 -5 72
-3 72 8 0 11 -13 14 -59 12 -42 -3 -59 0 -56 8 2 7 6 24 9 40 4 15 13 27 22
27 20 0 44 24 44 43 0 23 26 28 125 27 49 -1 114 3 144 9 29 6 56 11 58 11 2
0 1 4 -2 10 -3 6 1 7 9 4 9 -3 16 -1 16 5 0 6 -9 11 -20 11 -11 0 -20 5 -20
10 0 16 332 9 337 -7 3 -9 -6 -10 -33 -6 -27 4 -35 3 -30 -5 5 -8 2 -10 -8 -6
-10 4 -16 1 -16 -7 0 -11 27 -15 118 -17 106 -3 119 -5 135 -25 10 -12 15 -15
12 -6 -8 23 102 28 111 5 5 -14 8 -14 21 0 18 18 22 15 25 -18 2 -20 9 -28 30
-32 15 -3 35 -3 43 0 20 8 65 -4 65 -17 0 -6 -4 -8 -9 -4 -5 3 -12 1 -15 -4
-10 -15 15 -25 74 -31 l55 -5 0 -55 c0 -47 3 -56 24 -66 13 -7 28 -22 35 -35
6 -12 25 -26 43 -31 28 -7 32 -13 35 -46 3 -32 6 -37 26 -34 17 1 25 -4 29
-17 3 -12 17 -23 34 -26 22 -5 29 -12 29 -29 0 -19 -4 -22 -31 -18 -30 4 -30
4 -27 -34 l3 -39 58 -3 c46 -2 57 -6 57 -21 0 -33 24 -72 43 -67 12 3 19 -3
23 -20 4 -14 11 -21 18 -17 6 3 2 -3 -8 -15 -17 -20 -18 -22 -2 -22 9 0 14 4
11 10 -3 6 -1 10 4 10 6 0 11 -5 11 -11 0 -8 5 -7 16 1 13 11 16 10 21 -8 4
-17 13 -22 37 -22 54 0 76 -10 73 -33 -2 -18 5 -23 43 -29 25 -4 81 -7 124 -6
52 1 81 -3 84 -10 2 -8 -11 -12 -39 -12 -25 0 -39 -4 -34 -9 13 -11 165 -31
238 -31 55 0 57 -1 57 -26 0 -22 3 -24 14 -15 12 10 17 8 26 -9 9 -17 20 -21
48 -19 64 3 72 1 72 -26 0 -21 5 -25 30 -25 l30 0 0 500 0 500 -24 0 c-30 0
-37 9 -29 38 3 15 13 22 29 22 l24 0 0 155 0 155 -47 0 c-62 0 -78 10 -69 44
6 24 10 26 61 26 l55 0 -1 150 0 150 -56 0 -55 0 5 -60 5 -59 -67 -3 c-64 -3
-66 -4 -69 -30 l-3 -28 -280 0 -279 0 0 -25 c0 -19 5 -25 21 -25 37 0 57 -17
52 -44 -5 -24 -3 -25 53 -28 56 -3 59 -4 62 -30 3 -27 32 -41 32 -15 0 9 2 9
8 0 4 -6 28 -13 52 -15 41 -3 45 -5 42 -27 -5 -29 12 -41 61 -41 37 0 39 2 41
45 1 18 9 20 86 23 115 4 128 0 122 -37 -3 -25 -9 -30 -36 -33 -26 -2 -32 -8
-34 -30 l-3 -28 -190 0 -189 0 0 30 0 30 -60 0 c-55 0 -60 2 -61 23 -1 12 -1
25 0 30 0 4 -28 8 -64 8 -36 1 -69 3 -75 4 -5 1 -19 3 -30 4 -15 1 -20 8 -20
31 l0 30 -185 0 -185 0 0 34 0 34 185 -5 185 -5 0 26 c0 21 -6 26 -35 32 -19
3 -46 4 -60 2 -23 -5 -25 -2 -25 28 0 30 3 33 33 36 25 2 32 8 33 26 1 12 2
27 3 33 0 5 16 9 34 7 28 -3 32 -6 29 -29 l-2 -27 170 -3 c93 -2 247 -2 341 0
l170 3 -3 26 -3 26 -305 3 c-168 2 -311 5 -318 8 -7 3 -12 13 -10 22 3 17 -71
18 -1509 21 l-1513 2 0 -560z m2107 480 l-6 -30 172 0 c94 0 195 -3 222 -6
l50 -6 -3 -59 -4 -59 -64 0 -64 0 0 30 0 30 -345 0 -345 0 0 38 0 37 125 -3
125 -4 0 25 c0 34 6 37 78 37 l65 0 -6 -30z m-384 13 c-24 -2 -62 -2 -85 0
-24 2 -5 4 42 4 47 0 66 -2 43 -4z m-63 -78 l0 -35 -96 0 c-86 0 -95 -2 -90
-17 11 -36 -6 -42 -126 -44 l-116 -1 -7 -27 c-9 -37 -20 -41 -107 -41 -76 0
-77 0 -80 -27 l-3 -28 -148 -3 c-144 -2 -148 -3 -157 -26 -4 -13 -16 -26 -25
-30 -32 -12 -46 8 -50 67 l-3 57 156 2 c153 3 157 4 157 25 0 32 10 36 75 34
l60 -2 0 35 0 36 89 0 90 0 3 27 c4 36 20 39 219 35 l159 -3 0 -34z m-1180
-214 c0 -5 -3 -23 -6 -40 l-7 -32 -91 3 -91 3 -3 32 -3 32 88 4 c48 1 94 4
101 5 6 1 12 -2 12 -7z m-196 -137 c8 -22 8 -54 -1 -55 -5 -1 -34 -2 -65 -3
-54 -1 -57 0 -60 25 -7 44 0 49 62 49 44 0 59 -4 64 -16z m853 -700 c-3 -3
-12 -4 -19 -1 -8 3 -5 6 6 6 11 1 17 -2 13 -5z m-20 -51 c-3 -10 -5 -4 -5 12
0 17 2 24 5 18 2 -7 2 -21 0 -30z"/>
<path d="M2275 3130 c-18 -8 -17 -9 8 -9 15 -1 27 4 27 9 0 12 -8 12 -35 0z"/>
<path d="M2320 3128 c0 -4 7 -8 15 -8 8 0 15 4 15 8 0 5 -7 9 -15 9 -8 0 -15
-4 -15 -9z"/>
<path d="M1475 3110 c3 -5 11 -10 16 -10 6 0 7 5 4 10 -3 6 -11 10 -16 10 -6
0 -7 -4 -4 -10z"/>
<path d="M1538 3103 c12 -2 32 -2 45 0 12 2 2 4 -23 4 -25 0 -35 -2 -22 -4z"/>
<path d="M1390 3035 c0 -8 5 -15 10 -15 6 0 10 7 10 15 0 8 -4 15 -10 15 -5 0
-10 -7 -10 -15z"/>
<path d="M1255 2960 c-3 -5 -1 -10 4 -10 6 0 11 5 11 10 0 6 -2 10 -4 10 -3 0
-8 -4 -11 -10z"/>
<path d="M1196 2920 c-17 -6 -18 -7 -3 -13 9 -3 19 -2 23 4 9 15 2 18 -20 9z"/>
<path d="M2540 2871 c0 -10 19 -25 25 -20 1 2 -3 10 -11 17 -8 7 -14 8 -14 3z"/>
<path d="M2630 2817 c0 -8 8 -17 18 -21 77 -26 102 -33 102 -25 0 5 -7 9 -16
9 -8 0 -35 12 -60 26 -34 20 -44 22 -44 11z"/>
<path d="M1248 2763 c6 -2 18 -2 25 0 6 3 1 5 -13 5 -14 0 -19 -2 -12 -5z"/>
<path d="M1240 2739 c0 -5 10 -9 22 -9 12 0 18 3 14 7 -10 11 -36 12 -36 2z"/>
<path d="M1142 2650 c0 -14 2 -19 5 -12 2 6 2 18 0 25 -3 6 -5 1 -5 -13z"/>
<path d="M2800 2645 c0 -8 4 -15 10 -15 5 0 7 7 4 15 -4 8 -8 15 -10 15 -2 0
-4 -7 -4 -15z"/>
<path d="M2790 2610 c0 -5 5 -10 10 -10 6 0 10 5 10 10 0 6 -4 10 -10 10 -5 0
-10 -4 -10 -10z"/>
<path d="M2877 2563 c-15 -14 -6 -23 22 -23 17 0 33 5 37 12 4 7 3 8 -4 4 -7
-4 -12 -2 -12 3 0 12 -33 15 -43 4z"/>
<path d="M2940 2457 c0 -8 6 -17 14 -20 9 -4 13 0 12 11 -3 20 -26 29 -26 9z"/>
<path d="M2855 2450 c-3 -5 3 -10 14 -10 12 0 21 5 21 10 0 6 -6 10 -14 10 -8
0 -18 -4 -21 -10z"/>
<path d="M903 2373 c9 -2 25 -2 35 0 9 3 1 5 -18 5 -19 0 -27 -2 -17 -5z"/>
<path d="M3309 2311 c12 -8 51 -4 51 5 0 2 -15 4 -32 4 -23 0 -29 -3 -19 -9z"/>
<path d="M3568 2243 c12 -2 32 -2 45 0 12 2 2 4 -23 4 -25 0 -35 -2 -22 -4z"/>
<path d="M675 2200 c-3 -5 1 -10 10 -10 9 0 13 5 10 10 -3 6 -8 10 -10 10 -2
0 -7 -4 -10 -10z"/>
<path d="M440 2170 c0 -5 16 -9 35 -8 19 1 32 5 29 10 -7 11 -64 10 -64 -2z"/>
<path d="M3738 2163 c7 -3 16 -2 19 1 4 3 -2 6 -13 5 -11 0 -14 -3 -6 -6z"/>
<path d="M30 2120 l-35 -7 38 -2 c20 0 37 4 37 9 0 6 -1 9 -2 9 -2 -1 -19 -5
-38 -9z"/>
<path d="M0 1470 l0 -500 50 0 c49 0 50 -1 50 -30 0 -27 3 -30 30 -30 27 0 30
-3 30 -30 l0 -30 310 0 310 0 0 30 c0 28 3 30 35 30 32 0 35 -2 35 -30 l0 -29
93 -3 92 -3 0 -29 c1 -28 2 -28 60 -32 33 -2 88 -1 123 3 l62 5 0 59 0 59 159
0 158 0 -1 28 -1 27 125 5 125 5 -1 27 c-1 35 12 37 216 35 l165 -2 0 -30 0
-30 122 -3 122 -3 3 33 3 33 185 0 185 0 3 -32 3 -33 66 0 65 0 -4 -30 -5 -30
64 0 63 0 0 30 c0 27 3 30 30 30 29 0 37 -14 31 -52 0 -5 28 -8 64 -8 l65 0 0
-30 0 -30 126 0 127 0 -6 30 -6 30 129 0 130 0 0 -30 c0 -30 1 -30 55 -30 l55
0 0 560 0 560 -422 0 c-406 0 -498 -4 -498 -20 0 -4 12 -5 28 -2 15 3 23 1 19
-4 -5 -5 -13 -10 -18 -10 -5 -1 -17 -3 -26 -4 -10 -1 -2 -6 17 -10 21 -5 -28
-8 -123 -8 -88 0 -157 2 -154 5 3 2 57 4 121 4 64 -1 116 1 116 3 0 2 3 11 6
20 4 11 0 16 -12 16 -15 0 -16 -2 -5 -9 20 -13 3 -17 -74 -16 -133 2 -172 6
-150 15 18 8 17 9 -8 9 -16 1 -26 -3 -22 -9 7 -12 7 -12 -187 -14 -90 0 -150
3 -153 9 -2 6 -4 2 -2 -8 2 -17 13 -19 124 -18 l123 0 0 -35 0 -34 -128 0
-128 0 0 28 1 27 -260 3 c-143 1 -266 5 -273 7 -7 3 -10 9 -7 15 3 5 2 10 -4
10 -5 0 -11 -21 -13 -47 l-3 -48 -55 -3 c-30 -2 -88 -1 -127 3 l-73 7 0 32 c0
30 -2 33 -25 28 -21 -4 -25 -1 -25 21 0 19 6 27 23 30 12 2 -321 5 -740 6
l-763 1 0 -500z m2668 443 c-10 -2 -26 -2 -35 0 -10 3 -2 5 17 5 19 0 27 -2
18 -5z m-434 -69 c40 -6 47 -10 44 -28 -4 -26 -34 -33 -148 -35 -90 -1 -102 3
-113 33 -6 16 -16 18 -87 14 -44 -2 -80 0 -80 4 0 7 49 10 266 16 39 1 92 -1
118 -4z m-394 -8 c0 -2 -7 -6 -15 -10 -8 -3 -15 -1 -15 4 0 6 7 10 15 10 8 0
15 -2 15 -4z m143 -36 c10 -10 6 -11 -22 -6 -18 3 -63 6 -100 7 -36 0 -58 3
-49 7 31 12 158 6 171 -8z m-366 -102 c-3 -8 -6 -5 -6 6 -1 11 2 17 5 13 3 -3
4 -12 1 -19z m173 -8 l0 -30 -75 0 c-53 0 -75 4 -75 13 0 9 -3 8 -9 -2 -5 -8
-11 -9 -15 -3 -3 5 1 12 9 16 8 3 15 12 15 21 0 12 14 15 75 15 l75 0 0 -30z
m178 1 c-4 -31 -30 -35 -40 -6 -6 19 -6 19 -7 -2 -1 -20 -7 -23 -40 -23 -36 0
-38 2 -37 30 l1 30 63 -1 c62 -1 63 -2 60 -28z m310 -3 c3 -24 0 -28 -22 -28
-13 0 -26 5 -28 11 -2 7 -10 4 -18 -7 -9 -11 -10 -15 -2 -10 8 5 12 -2 12 -23
0 -28 -3 -31 -32 -30 -18 0 -27 3 -20 6 6 2 9 9 6 15 -4 6 1 8 15 3 20 -6 21
-5 9 14 -7 11 -15 16 -18 11 -3 -5 -6 8 -7 28 l-2 38 52 -1 c49 0 52 -2 55
-27z m-178 -58 l0 -30 -65 0 -65 0 0 30 0 30 65 0 65 0 0 -30z m363 13 c-7 -2
-21 -2 -30 0 -10 3 -4 5 12 5 17 0 24 -2 18 -5z m2 -33 c4 -6 -5 -10 -20 -10
-15 0 -24 4 -20 10 3 6 12 10 20 10 8 0 17 -4 20 -10z m-417 -80 c51 0 52 0
52 -30 0 -16 -5 -30 -11 -30 -7 0 -9 -11 -5 -30 4 -23 2 -30 -10 -30 -8 0 -12
5 -9 11 4 6 -2 5 -13 -2 -16 -10 -25 -10 -44 -1 -13 7 -16 11 -6 8 10 -3 18 2
21 14 4 14 -3 19 -32 24 -20 3 -47 6 -61 6 -21 0 -26 5 -25 28 0 35 12 44 55
37 19 -2 59 -5 88 -5z m-330 -22 c-3 -20 -10 -23 -59 -26 -55 -3 -56 -2 -56
23 0 24 2 25 59 25 56 0 59 -1 56 -22z m176 -47 c9 -14 -4 -41 -20 -41 -8 0
-14 8 -14 18 0 29 22 43 34 23z"/>
<path d="M2235 1700 c-3 -5 -1 -10 4 -10 6 0 11 5 11 10 0 6 -2 10 -4 10 -3 0
-8 -4 -11 -10z"/>
<path d="M2046 1461 c-3 -5 1 -11 9 -15 9 -3 15 0 15 9 0 16 -16 20 -24 6z"/>
<path d="M1533 1964 c6 -7 289 -6 296 1 2 3 -65 5 -149 5 -84 0 -151 -3 -147
-6z"/>
<path d="M1898 1963 c7 -3 16 -2 19 1 4 3 -2 6 -13 5 -11 0 -14 -3 -6 -6z"/>
<path d="M1938 1963 c6 -2 18 -2 25 0 6 3 1 5 -13 5 -14 0 -19 -2 -12 -5z"/>
<path d="M2408 1953 c12 -2 32 -2 45 0 12 2 2 4 -23 4 -25 0 -35 -2 -22 -4z"/>
<path d="M2488 1953 c7 -3 16 -2 19 1 4 3 -2 6 -13 5 -11 0 -14 -3 -6 -6z"/>
<path d="M2568 1953 c6 -2 18 -2 25 0 6 3 1 5 -13 5 -14 0 -19 -2 -12 -5z"/>
<path d="M2758 1953 c6 -2 18 -2 25 0 6 3 1 5 -13 5 -14 0 -19 -2 -12 -5z"/>
<path d="M1837 1930 c8 -8 53 -7 53 2 0 4 -13 6 -29 5 -16 -1 -27 -4 -24 -7z"/>
<path d="M0 650 l0 -71 48 2 c26 1 75 4 110 6 60 5 62 6 62 34 0 27 -1 28 -62
31 -63 3 -63 3 -66 36 -3 31 -5 32 -48 32 l-44 0 0 -70z"/>
<path d="M1978 688 c-3 -35 -2 -35 -90 -37 -35 -1 -38 -3 -38 -31 l0 -30 -95
0 -95 0 0 29 c0 35 -15 39 -115 31 -67 -5 -70 -6 -70 -30 l0 -25 -342 -3
c-369 -2 -348 1 -346 -49 1 -10 -50 -13 -223 -13 l-224 0 0 30 c0 27 -3 30
-30 30 -26 0 -30 -3 -30 -29 0 -28 22 -47 40 -36 4 3 10 -4 13 -15 3 -11 1
-20 -4 -20 -5 0 -9 3 -9 8 0 4 -18 8 -40 9 -31 2 -40 -1 -40 -13 0 -13 -9 -15
-44 -13 -26 3 -48 -1 -55 -8 -20 -22 -27 -15 -23 22 2 19 8 32 13 29 5 -3 9 4
9 15 0 27 -11 32 -46 22 -24 -7 -26 -10 -12 -16 23 -9 25 -80 4 -88 -19 -8
-66 14 -66 31 0 6 -4 12 -10 12 -6 0 -10 -33 -10 -80 l0 -80 28 -1 c15 0 36
-4 47 -9 19 -7 19 -8 2 -15 -16 -7 -16 -9 5 -27 19 -16 20 -21 8 -28 -10 -7 2
-10 40 -10 39 0 51 -3 40 -10 -13 -8 -12 -10 3 -10 9 0 17 5 17 10 0 6 7 10
15 10 8 0 14 6 13 13 -2 9 53 13 244 15 l248 2 0 -25 c0 -14 -6 -26 -12 -27
-16 -2 161 -18 217 -19 22 -1 67 1 100 3 33 3 68 6 78 7 13 1 17 6 12 20 -8
25 14 40 50 33 l30 -6 -35 -7 c-33 -6 -33 -6 13 -8 26 0 47 -6 47 -12 0 -5 -4
-8 -9 -4 -5 3 -12 1 -16 -5 -4 -7 45 -10 144 -10 l151 0 0 25 c0 18 5 25 20
25 11 0 20 -5 20 -11 0 -5 -4 -8 -9 -4 -5 3 -12 1 -15 -4 -3 -5 5 -11 18 -13
21 -4 23 -1 25 41 1 25 5 49 9 53 4 4 91 9 192 10 l185 3 3 28 3 27 171 0 c94
0 168 -3 165 -7 -4 -3 -22 -7 -39 -8 -79 -5 -185 -6 -205 -1 -13 3 -23 1 -23
-3 0 -13 52 -18 196 -20 132 -2 180 9 112 27 -33 8 -33 8 -10 21 22 11 22 14
7 25 -28 20 5 39 55 31 36 -6 40 -10 40 -36 0 -26 3 -29 31 -29 25 0 29 -3 24
-19 -10 -32 23 -41 152 -43 108 -2 111 -2 31 -5 -69 -3 -88 -7 -88 -18 0 -17
70 -20 132 -6 21 5 36 6 33 2 -2 -4 11 -8 30 -9 25 -1 35 3 35 13 0 9 -11 16
-27 16 -24 1 -23 2 7 8 28 5 36 11 38 31 l3 25 196 3 196 3 -5 -25 c-6 -30 0
-33 18 -8 12 16 13 15 14 -6 0 -12 7 -25 16 -29 13 -5 13 -7 2 -14 -9 -6 -3
-8 17 -7 42 3 58 -9 51 -37 -3 -13 -2 -27 4 -30 6 -4 10 5 10 19 0 14 6 26 13
26 8 0 7 3 -2 9 -12 8 -10 11 10 15 13 3 33 4 44 2 11 -3 24 -5 28 -5 5 -1 5
-5 2 -11 -3 -5 0 -10 7 -10 15 0 48 20 33 20 -5 0 -4 4 4 9 8 5 -25 9 -85 10
-54 1 -100 4 -103 6 -2 3 85 4 195 4 114 -1 184 -5 164 -9 -34 -7 -34 -7 13
-9 30 0 46 3 42 9 -4 6 33 10 104 10 l111 0 0 95 c0 95 0 95 -25 95 -21 0 -25
-5 -25 -30 0 -27 -3 -30 -30 -30 -29 0 -34 7 -31 43 2 15 -8 17 -93 17 l-96 0
0 30 0 30 -65 0 c-49 0 -65 -3 -65 -14 0 -22 -43 -44 -83 -41 -36 2 -37 1 -37
-32 0 -30 -3 -33 -31 -33 l-30 0 3 55 c2 37 7 55 16 55 7 0 11 -4 7 -9 -3 -5
-1 -12 4 -15 5 -3 11 3 14 14 4 17 14 20 72 20 l66 0 -3 33 -3 32 -90 1 c-81
0 -90 2 -91 20 -1 10 -2 25 -3 32 -1 9 -82 12 -371 12 l-370 0 0 -35 0 -34
-157 2 -158 2 -3 33 -3 32 -119 0 -119 0 -3 -32z m1240 -65 c-3 -35 -6 -38
-35 -41 -30 -3 -33 -1 -33 22 0 32 -27 35 -33 4 -4 -16 -5 -14 -4 7 2 31 22
42 80 44 27 1 28 -1 25 -36z m-1186 -58 c-1 -17 -2 -43 -3 -58 0 -21 -4 -27
-15 -23 -8 3 -14 2 -14 -2 0 -5 -20 -9 -45 -11 -44 -2 -45 -1 -45 27 0 17 -6
32 -15 36 -9 3 -15 17 -14 33 0 25 1 26 9 8 7 -17 9 -17 9 -3 1 10 7 15 14 12
7 -2 31 0 52 5 60 14 70 10 67 -24z m681 18 c5 -3 6 -11 3 -18 -3 -8 2 -19 10
-25 19 -16 18 -56 -2 -64 -9 -3 -27 -6 -40 -6 -19 0 -24 5 -24 25 0 19 -7 26
-27 31 -16 3 -33 7 -40 9 -14 5 -13 47 2 58 10 7 102 0 118 -10z m567 -13 c0
-5 -7 -10 -15 -10 -8 0 -15 5 -15 10 0 6 7 10 15 10 8 0 15 -4 15 -10z m-1413
-22 c-3 -8 -6 -5 -6 6 -1 11 2 17 5 13 3 -3 4 -12 1 -19z m1318 -8 c8 -13 -5
-13 -25 0 -13 8 -13 10 2 10 9 0 20 -4 23 -10z m35 -5 c0 -8 -2 -15 -4 -15 -2
0 -6 7 -10 15 -3 8 -1 15 4 15 6 0 10 -7 10 -15z m-1505 -15 c-3 -5 -3 -10 2
-11 4 0 18 -2 30 -3 16 -2 20 1 13 9 -6 8 1 10 25 7 22 -3 35 -10 38 -23 5
-18 -1 -19 -76 -19 l-80 0 23 25 c24 26 36 33 25 15z m1055 -5 c0 -8 5 -15 10
-15 6 0 13 7 16 15 6 15 25 21 23 8 -3 -20 2 -26 11 -13 8 12 10 11 10 -6 0
-26 -14 -33 -57 -27 -27 4 -33 10 -33 29 0 13 5 24 10 24 6 0 10 -7 10 -15z
m805 5 c3 -5 -3 -10 -14 -10 -12 0 -21 5 -21 10 0 6 6 10 14 10 8 0 18 -4 21
-10z m-2311 -6 c9 -3 16 -15 16 -25 0 -16 -7 -19 -42 -18 l-43 1 35 13 35 13
-57 0 c-64 -1 -73 -9 -28 -28 30 -12 42 -40 18 -40 -19 -1 34 -29 55 -30 26 0
21 -30 -5 -31 -19 -1 -17 -3 7 -9 23 -6 15 -8 -36 -9 l-66 -1 8 43 c6 34 5 44
-9 55 -8 6 -21 12 -26 11 -6 0 -5 -3 2 -6 19 -7 14 -33 -7 -33 -47 0 -81 13
-81 31 0 22 0 22 34 9 23 -8 26 -6 32 15 3 13 3 29 -1 34 -7 12 131 16 159 5z
m2317 -37 c-12 -12 -45 -1 -37 12 3 5 15 7 27 4 13 -4 17 -9 10 -16z m-3311 3
c0 -5 -4 -10 -10 -10 -5 0 -10 5 -10 10 0 6 5 10 10 10 6 0 10 -4 10 -10z
m531 -26 c8 -4 10 -3 5 4 -8 14 -4 15 18 6 16 -6 22 -35 10 -47 -4 -4 -12 -3
-18 0 -11 8 -69 5 -99 -3 -11 -4 -16 -12 -13 -20 3 -8 1 -14 -4 -14 -6 0 -9
-6 -7 -12 1 -7 -4 -13 -10 -13 -7 0 -13 3 -13 8 0 4 0 29 0 56 l0 49 59 -3
c33 -2 65 -6 72 -11z m2989 -14 c0 -27 -3 -30 -29 -30 -21 0 -32 6 -36 20 -9
28 2 40 36 40 26 0 29 -3 29 -30z m-3650 -6 c0 -18 -17 -27 -23 -12 -3 10 -8
10 -16 2 -16 -14 -61 -6 -61 12 0 8 6 11 14 8 8 -3 22 -1 32 4 21 12 54 4 54
-14z m3320 1 c0 -16 -6 -25 -16 -25 -10 0 -14 6 -11 14 3 7 0 19 -6 25 -8 8
-5 11 11 11 17 0 22 -6 22 -25z m-2435 -45 c4 -6 -6 -10 -22 -9 -25 0 -26 1
-8 9 11 5 21 9 22 9 1 1 5 -3 8 -9z m1613 -77 c-16 -2 -40 -2 -55 0 -16 2 -3
4 27 4 30 0 43 -2 28 -4z"/>
<path d="M2367 423 c-4 -3 -7 -16 -7 -29 0 -15 7 -23 25 -26 14 -3 25 -1 25 6
0 6 5 4 11 -4 9 -13 10 -13 6 0 -2 9 -13 14 -27 12 -20 -3 -22 0 -18 22 5 25
-2 33 -15 19z"/>
<path d="M1965 377 c-4 -10 -5 -21 -1 -24 10 -10 18 4 13 24 -4 17 -4 17 -12
0z"/>
<path d="M2988 383 c7 -3 16 -2 19 1 4 3 -2 6 -13 5 -11 0 -14 -3 -6 -6z"/>
<path d="M3053 383 c15 -2 37 -2 50 0 12 2 0 4 -28 4 -27 0 -38 -2 -22 -4z"/>
<path d="M2840 370 c0 -6 11 -9 25 -7 37 5 42 17 7 17 -18 0 -32 -5 -32 -10z"/>
<path d="M1567 303 c-3 -15 -1 -36 3 -47 9 -21 9 -21 9 0 1 12 8 25 17 28 14
5 14 9 3 22 -12 15 -10 15 25 0 50 -21 61 -20 63 4 2 18 -4 20 -56 20 -56 0
-59 -1 -64 -27z"/>
<path d="M1700 321 c0 -6 5 -13 10 -16 6 -3 10 1 10 9 0 9 -4 16 -10 16 -5 0
-10 -4 -10 -9z"/>
<path d="M8 313 c7 -3 16 -2 19 1 4 3 -2 6 -13 5 -11 0 -14 -3 -6 -6z"/>
<path d="M3380 259 c0 -24 23 -21 28 4 2 10 -3 17 -12 17 -10 0 -16 -9 -16
-21z"/>
<path d="M668 253 c7 -3 16 -2 19 1 4 3 -2 6 -13 5 -11 0 -14 -3 -6 -6z"/>
<path d="M857 186 c-4 -9 8 -13 41 -14 26 -1 79 -4 119 -7 44 -4 74 -2 78 5 7
11 8 11 -100 15 -43 2 -91 6 -106 9 -17 3 -29 0 -32 -8z"/>
</g>
</svg>
